<svg xmlns="http://www.w3.org/2000/svg" viewBox="0 0 258 243.2"><path d="M122.5 71a109.9 109.9 0 0 1 58.3-42s-8-19.1-35-21a54 54 0 0 0-15.6 8.9 52.1 52.1 0 0 0-15 23.5c-3.6 10-12.1 8.4-14.7-1.7-3.6-14.4 8.3-25.7 19-33.1a62.4 62.4 0 0 1 6.4-3.9C79-8.3 69.5 29 68.2 53.7a10 10 0 0 0 .7 1.6c1.8 3.2 13 14.5 19.2 23.5l.7 1 .7 1.1c2.7 4.3 8.3 13.7 5.7 16.6-2.1 2.4-10-.5-15-2.8-9.7-4-26-16.7-30-18.3a10 10 0 0 0-1.8-.5c-23.2 4-56.6 16.7-46.6 56.8a60 60 0 0 1 3.8-5.4c8-10.3 20-21.4 34.3-16.9 9.9 3.2 11 11.8.7 14.8a52.5 52.5 0 0 0-24.4 13.5 48 48 0 0 0-8 11.5s3.3 16.6 9 23.8 24.4 20.4 24.4 20.4a66.9 66.9 0 0 1-.6-27.1c2-11.2 8.4-31.4 21.8-32.8 3.5-.4 6 3.7 4.5 6.8A109.6 109.6 0 0 0 56 175.5a89.4 89.4 0 0 0-.4 29.3 186 186 0 0 0 34.1 17.3c-2-8-3-16.5-4.2-24-2.3-14.7-6.7-34.9 4.3-47.2a4.8 4.8 0 0 1 8.3 2.8c.4 5.6-1.2 10.5-2 16a75 75 0 0 0 .2 20.5c1.7 13.4 4 28.3 13.2 38.7a320.4 320.4 0 0 0 38.1 8.6c-.1-3.1-.4-6.3-.8-9.4a291.6 291.6 0 0 0-6.7-37.7c-1.5-5.7-3.7-11.3-1-17 1.7-3.4 5-7.1 8.3-4.1 5.1 4.5 5.6 19.9 6.8 26 3.4 16.6 9.4 33 20 45.7 13.3 1.4 26 2 37.2 2.2a199 199 0 0 1-7.3-13.4c-2.4-5-9-16.3-4.7-21.9 4.2-5.3 11.6-.9 14 3.5s3.2 9.6 5.2 14.2a65.4 65.4 0 0 0 11.7 17.6c17-.3 27.6-1.3 27.6-1.3a438.5 438.5 0 0 0-5-51.1 62 62 0 0 0-40-10.8c-5.5.6-14 5.1-19.3 1.6a8.3 8.3 0 0 1-2.3-11.1c6.3-10.3 26.5-8.5 36.3-6.1a73.8 73.8 0 0 1 22.7 10.2 414.7 414.7 0 0 0-12-49 39.1 39.1 0 0 0-14.8-2 51 51 0 0 0-26.8 11.2l-2 1.6-.2.1-2 1.8c-4.1 3.3-12.7 9.5-17 6.1-5-3.7-4-10 2-15.7a105.5 105.5 0 0 1 9.8-7.2 65.6 65.6 0 0 1 35.8-11.2 37 37 0 0 1 4.9.4 27.9 27.9 0 0 1 4.7.7l.7.2.9-14S219.9 71.2 217 74.8l-1.9-.3c-10.3-1.3-20.6 0-29 5a49.9 49.9 0 0 0-20 24.3v.1l-1.1 2.6c-2.2 4.7-7.1 14-12.5 13-6-1.2-8-7.3-5.1-15a104.2 104.2 0 0 1 5.5-10.8 65.7 65.7 0 0 1 27.2-26 37.7 37.7 0 0 1 4.5-1.8 28 28 0 0 1 4.5-1.5l4.7-1.1 4.7-.6a71.2 71.2 0 0 1 11.4 0 167.3 167.3 0 0 0-17.1-22.3 106.3 106.3 0 0 0-39.3 19.4c-8.3 6.4-15.8 18-27.1 19-4.5.4-6-4.7-3.9-7.8zm-34.9 52.8c.8-5.8 4-10.1 7.3-9.7s5.3 5.5 4.5 11.3-4 10.2-7.3 9.7-5.3-5.4-4.5-11.3zm20.9 26.6c-2.7-1.1-3.5-5.6-1.6-10s5.5-7.2 8.2-6 3.5 5.6 1.6 10-5.5 7.1-8.2 6zm19.9-3.6c-1.5 3.6-4.6 5.8-6.8 4.9s-2.9-4.7-1.4-8.3 4.6-5.9 6.8-5 2.9 4.7 1.4 8.3zM140 93.2c1.3 3-2 7.4-7.4 9.7s-10.8 1.8-12.1-1.2 2-7.4 7.4-9.7 10.8-1.8 12.1 1.2z" data-name="Layer 2"/></svg>